#define core_failure_width 138
#define core_failure_height 40
static unsigned char core_failure_bits[] = {
   0x00, 0x00, 0x00, 0x00, 0x00, 0x00, 0x00, 0x00, 0x00, 0x00, 0x00, 0x00,
   0x00, 0x00, 0x00, 0x00, 0x00, 0x00, 0x00, 0x80, 0xff, 0x00, 0x00, 0x40,
   0x20, 0x00, 0x00, 0x00, 0x10, 0x40, 0x10, 0x00, 0x04, 0x40, 0x20, 0x00,
   0x00, 0xf0, 0xff, 0x07, 0x00, 0x40, 0x40, 0x00, 0x02, 0x00, 0x10, 0x20,
   0x11, 0x41, 0x04, 0x80, 0x20, 0x00, 0x00, 0xfc, 0x80, 0x1f, 0x00, 0x40,
   0x40, 0x00, 0x04, 0x00, 0x10, 0x10, 0x92, 0x40, 0x04, 0x00, 0x20, 0x00,
   0x00, 0x1f, 0x00, 0x3c, 0x00, 0x40, 0xfe, 0x03, 0x08, 0xf8, 0x13, 0xf8,
   0x77, 0x40, 0x04, 0xf8, 0xe7, 0x03, 0x80, 0x07, 0x00, 0xf0, 0x00, 0xf8,
   0x21, 0x00, 0x08, 0x40, 0xfc, 0x01, 0x14, 0xc0, 0xff, 0x00, 0x10, 0x01,
   0xc0, 0x01, 0x00, 0xe0, 0x01, 0x40, 0x10, 0x02, 0x01, 0x40, 0x10, 0x01,
   0x10, 0x22, 0x04, 0x20, 0x11, 0x01, 0xe0, 0x00, 0x00, 0x80, 0x01, 0x60,
   0x08, 0x01, 0x81, 0x40, 0x10, 0xf1, 0x13, 0x12, 0x04, 0x10, 0x12, 0x01,
   0x70, 0x00, 0x3f, 0x80, 0x03, 0xe0, 0xfc, 0x20, 0x01, 0x41, 0x10, 0x11,
   0xe2, 0x03, 0x04, 0x08, 0x2c, 0x01, 0x38, 0x00, 0x3f, 0x00, 0x07, 0x50,
   0x41, 0x20, 0x01, 0x41, 0x10, 0x11, 0x02, 0xf8, 0xff, 0x23, 0xa1, 0x00,
   0x18, 0x00, 0x3f, 0x00, 0x06, 0x50, 0x21, 0x22, 0x01, 0x42, 0x08, 0xf1,
   0x13, 0x01, 0x04, 0x40, 0xa1, 0x00, 0x1c, 0x00, 0x3f, 0x00, 0x0c, 0x48,
   0x18, 0x11, 0x01, 0x42, 0x08, 0x11, 0x92, 0x00, 0x0a, 0x80, 0x40, 0x00,
   0x0c, 0x00, 0x3f, 0x00, 0x1c, 0x40, 0x86, 0x10, 0x41, 0xc2, 0x0b, 0x11,
   0x72, 0x00, 0x0a, 0x40, 0x41, 0x00, 0x0e, 0x00, 0x3f, 0x00, 0x18, 0x40,
   0x40, 0x08, 0x41, 0x78, 0x04, 0xf1, 0x13, 0x00, 0x11, 0x20, 0xa2, 0x00,
   0x06, 0x00, 0x3f, 0x00, 0x18, 0x40, 0xa0, 0x00, 0x41, 0x10, 0x04, 0x11,
   0x12, 0x82, 0x20, 0x10, 0x92, 0x00, 0x07, 0x00, 0x3f, 0x00, 0x38, 0x40,
   0x18, 0x01, 0x7e, 0x00, 0xa2, 0x90, 0x12, 0x42, 0x40, 0x08, 0x08, 0x01,
   0x07, 0x00, 0x3f, 0x00, 0x38, 0x40, 0x06, 0x02, 0x00, 0x00, 0x41, 0x10,
   0xe1, 0x33, 0x80, 0x01, 0x04, 0x02, 0x03, 0x00, 0x3f, 0x00, 0x30, 0x00,
   0x00, 0x00, 0x00, 0x00, 0x00, 0x00, 0x00, 0x00, 0x00, 0x00, 0x00, 0x00,
   0x03, 0x00, 0x3f, 0x00, 0x30, 0x00, 0x00, 0x00, 0x00, 0x00, 0x00, 0x00,
   0x00, 0x00, 0x00, 0x00, 0x00, 0x00, 0x03, 0x00, 0x3f, 0x00, 0x30, 0x00,
   0x00, 0x00, 0x00, 0x00, 0x00, 0x00, 0x00, 0x00, 0x00, 0x00, 0x00, 0x00,
   0x03, 0x00, 0x3f, 0x00, 0x30, 0x00, 0x00, 0x00, 0x00, 0x00, 0x00, 0x00,
   0x00, 0x00, 0x00, 0x00, 0x00, 0x00, 0x03, 0x00, 0x3f, 0x00, 0x30, 0x00,
   0x00, 0x00, 0x00, 0x00, 0x00, 0x00, 0x00, 0x00, 0x00, 0x00, 0x00, 0x00,
   0x07, 0x00, 0x3f, 0x00, 0x30, 0x00, 0x10, 0x00, 0x88, 0x00, 0xf8, 0x00,
   0x00, 0x00, 0x04, 0x00, 0x02, 0x00, 0x07, 0x00, 0x00, 0x00, 0x30, 0x10,
   0x10, 0xf8, 0x91, 0xe0, 0x07, 0xf0, 0xff, 0x41, 0x44, 0x00, 0x82, 0x00,
   0x06, 0x00, 0x1e, 0x00, 0x38, 0x20, 0xff, 0x91, 0x50, 0x00, 0x01, 0x80,
   0x20, 0x40, 0x84, 0xe0, 0x5f, 0x00, 0x06, 0x00, 0x3f, 0x00, 0x18, 0x20,
   0x10, 0x90, 0x00, 0x80, 0x20, 0x80, 0x20, 0x20, 0x02, 0x00, 0x22, 0x00,
   0x06, 0x80, 0x7f, 0x00, 0x18, 0x00, 0xfe, 0xf0, 0xfc, 0x41, 0x10, 0x80,
   0x20, 0xe0, 0xff, 0x01, 0x12, 0x00, 0x0e, 0x80, 0x7f, 0x00, 0x18, 0x00,
   0x10, 0x90, 0x20, 0xe0, 0x0f, 0x80, 0x20, 0x00, 0x02, 0xf8, 0xff, 0x03,
   0x0c, 0x80, 0x7f, 0x00, 0x0c, 0x38, 0xff, 0x93, 0x20, 0x00, 0x04, 0x80,
   0x20, 0x00, 0x01, 0x00, 0x04, 0x00, 0x1c, 0x80, 0x7f, 0x00, 0x0e, 0x20,
   0x00, 0xf0, 0x20, 0x00, 0x43, 0xf8, 0xff, 0x03, 0xff, 0x00, 0x02, 0x00,
   0x38, 0x00, 0x3f, 0x00, 0x06, 0x20, 0xfe, 0x90, 0xfe, 0xc3, 0x80, 0x80,
   0x20, 0x80, 0x82, 0x80, 0x7f, 0x00, 0x30, 0x00, 0x1e, 0x00, 0x07, 0x20,
   0x82, 0x90, 0x20, 0xf0, 0xff, 0x81, 0x20, 0x80, 0x84, 0xc0, 0x40, 0x00,
   0xf0, 0x00, 0x00, 0x80, 0x03, 0x20, 0xfe, 0x90, 0x51, 0x00, 0x04, 0x81,
   0x20, 0x40, 0x44, 0xa0, 0x40, 0x00, 0xe0, 0x00, 0x00, 0xc0, 0x01, 0x20,
   0x82, 0xf0, 0x50, 0x80, 0x24, 0x80, 0x20, 0x40, 0x28, 0x90, 0x7f, 0x00,
   0xc0, 0x03, 0x00, 0xf0, 0x00, 0xa0, 0xfe, 0x98, 0x88, 0x40, 0x44, 0x40,
   0x20, 0x20, 0x10, 0x88, 0x40, 0x00, 0x00, 0x0f, 0x00, 0x78, 0x00, 0x60,
   0x82, 0x80, 0x88, 0x20, 0x84, 0x40, 0x20, 0x10, 0x28, 0x80, 0x40, 0x00,
   0x00, 0x3e, 0x00, 0x1e, 0x00, 0x20, 0xa2, 0x80, 0x04, 0x11, 0x05, 0x21,
   0x20, 0x00, 0xc6, 0x80, 0x7f, 0x00, 0x00, 0xf8, 0x80, 0x0f, 0x00, 0x00,
   0x42, 0x80, 0x02, 0x02, 0x02, 0x10, 0x20, 0xc0, 0x01, 0x83, 0x40, 0x00,
   0x00, 0xe0, 0xff, 0x01, 0x00, 0x00, 0x00, 0x00, 0x00, 0x00, 0x00, 0x00,
   0x00, 0x00, 0x00, 0x00, 0x00, 0x00, 0x00, 0x80, 0xff, 0x00, 0x00, 0x00,
   0x00, 0x00, 0x00, 0x00, 0x00, 0x00, 0x00, 0x00, 0x00, 0x00, 0x00, 0x00 };
