#define tree_width 75
#define tree_height 112
static unsigned char tree_bits[] = {
   0x00, 0x00, 0x00, 0x00, 0x00, 0x00, 0x00, 0x00, 0x00, 0x00, 0x00, 0x00,
   0x00, 0x00, 0x00, 0x00, 0x00, 0x00, 0x00, 0x00, 0x00, 0x00, 0x00, 0x00,
   0x00, 0x00, 0x00, 0x00, 0x00, 0x00, 0x00, 0x00, 0x06, 0x3a, 0x00, 0x00,
   0x00, 0x00, 0x00, 0x00, 0x00, 0x00, 0x9f, 0x7f, 0x00, 0x00, 0x00, 0x00,
   0x00, 0x00, 0x00, 0x00, 0xfe, 0x3f, 0x00, 0x00, 0x00, 0x00, 0x00, 0x00,
   0x00, 0x00, 0xf8, 0xf0, 0x00, 0x00, 0x00, 0x00, 0x00, 0x00, 0x00, 0xfc,
   0x10, 0xf0, 0x0f, 0x00, 0x00, 0x00, 0x00, 0x00, 0x00, 0xff, 0x03, 0xf7,
   0x3f, 0x00, 0x00, 0x00, 0x00, 0x00, 0x80, 0xe7, 0xe3, 0x07, 0x7f, 0x00,
   0x00, 0x00, 0x00, 0x00, 0xe0, 0x03, 0xf2, 0x07, 0x7c, 0x00, 0x00, 0x00,
   0x00, 0x00, 0xe0, 0xb9, 0xf0, 0x7f, 0x1e, 0x00, 0x00, 0x00, 0x00, 0x00,
   0x70, 0xfc, 0x01, 0x7f, 0x0e, 0x00, 0x00, 0x00, 0x00, 0x00, 0xf8, 0xf8,
   0x01, 0x1e, 0x20, 0x00, 0x00, 0x00, 0x00, 0x00, 0xf0, 0xf1, 0x79, 0x0a,
   0xf1, 0x00, 0x00, 0x00, 0x00, 0x00, 0xe0, 0x79, 0xfc, 0x90, 0xf3, 0x01,
   0x00, 0x00, 0x00, 0x00, 0xe0, 0x7c, 0xfe, 0xbc, 0xc7, 0x03, 0x00, 0x00,
   0x00, 0x00, 0x70, 0x1e, 0xee, 0xbf, 0x8f, 0x03, 0x00, 0x00, 0x00, 0x00,
   0x38, 0x0e, 0xc6, 0x3f, 0x9f, 0x03, 0x00, 0x00, 0x00, 0x00, 0x38, 0x07,
   0xc7, 0xbf, 0x3f, 0x07, 0x00, 0x00, 0x00, 0x00, 0x1c, 0x17, 0x87, 0xb8,
   0x3f, 0x07, 0x00, 0x00, 0x00, 0x00, 0x1c, 0x3f, 0x03, 0xf8, 0x7b, 0x07,
   0x00, 0x00, 0x00, 0x00, 0x18, 0x3f, 0xc0, 0xf0, 0x73, 0x07, 0x00, 0x00,
   0x00, 0x00, 0x18, 0x3c, 0xee, 0xe1, 0xf3, 0x07, 0x00, 0x00, 0x00, 0x00,
   0x98, 0x38, 0xcf, 0x81, 0xc1, 0x07, 0x00, 0x00, 0x00, 0x00, 0x98, 0xf9,
   0xe7, 0x23, 0x84, 0x07, 0x00, 0x00, 0x00, 0x00, 0xb8, 0xf9, 0xe3, 0x37,
   0x26, 0x04, 0x00, 0x00, 0x00, 0x00, 0xf0, 0xf9, 0xe0, 0x7f, 0x74, 0x00,
   0x00, 0x00, 0x00, 0x00, 0xf0, 0x79, 0x7e, 0x3f, 0x61, 0x00, 0x00, 0x00,
   0x00, 0x00, 0xe0, 0x01, 0x7e, 0x1e, 0x7f, 0x00, 0x00, 0x00, 0x00, 0x00,
   0x80, 0x08, 0x7a, 0x94, 0xff, 0x00, 0x00, 0x00, 0x00, 0x00, 0x00, 0xfc,
   0x00, 0x00, 0x7f, 0x00, 0x00, 0x00, 0x00, 0x00, 0x00, 0xfc, 0x0e, 0xbc,
   0x03, 0x00, 0x00, 0x00, 0x00, 0x00, 0x00, 0xfc, 0xef, 0xfe, 0x03, 0x00,
   0x00, 0x00, 0x00, 0x00, 0x00, 0xd0, 0xef, 0xfc, 0x03, 0x00, 0x00, 0x00,
   0x00, 0x00, 0x00, 0xc0, 0xe7, 0x1e, 0x00, 0x00, 0x00, 0x00, 0x00, 0x00,
   0x00, 0x00, 0x46, 0x0e, 0x00, 0x00, 0x00, 0x00, 0x00, 0x00, 0x00, 0x00,
   0x00, 0x0e, 0x00, 0x00, 0x00, 0x00, 0x00, 0x00, 0x00, 0x00, 0x00, 0x0e,
   0x00, 0x00, 0x00, 0x00, 0x00, 0x00, 0x00, 0x00, 0x00, 0x0e, 0x00, 0x00,
   0x00, 0x08, 0x00, 0x00, 0x00, 0x00, 0x00, 0x0e, 0x00, 0x00, 0x7c, 0xfd,
   0x01, 0x00, 0x00, 0x00, 0x00, 0x0e, 0x00, 0x00, 0xff, 0xff, 0x01, 0x00,
   0x00, 0x00, 0x00, 0x0e, 0x00, 0x00, 0xdf, 0x57, 0x01, 0x00, 0x00, 0x00,
   0x00, 0x0e, 0x00, 0x80, 0x07, 0x00, 0x00, 0x00, 0x00, 0x00, 0x00, 0x0e,
   0x00, 0x00, 0x8f, 0xb8, 0x0f, 0x00, 0x00, 0x00, 0x00, 0x0e, 0x00, 0xc0,
   0xe7, 0x3c, 0x3f, 0x00, 0x00, 0x00, 0x00, 0x0e, 0x00, 0xe0, 0x71, 0x9e,
   0x7f, 0x00, 0x00, 0x00, 0x00, 0x0e, 0x00, 0xe0, 0x79, 0xfc, 0x73, 0x00,
   0x00, 0x00, 0x00, 0x0e, 0x00, 0xe0, 0xf1, 0xf9, 0xe3, 0x00, 0x00, 0x00,
   0x00, 0x0e, 0x00, 0xc0, 0xd1, 0xc1, 0xc7, 0x00, 0x00, 0x00, 0x00, 0x0e,
   0x00, 0xe0, 0xc1, 0x00, 0xe2, 0x01, 0x00, 0x00, 0x00, 0x0e, 0x00, 0xf0,
   0x48, 0x20, 0xf0, 0x01, 0x00, 0x00, 0x00, 0x0e, 0x00, 0x70, 0x1e, 0x73,
   0xf0, 0x00, 0x00, 0x00, 0x00, 0x0e, 0x00, 0x38, 0xff, 0x33, 0x67, 0x00,
   0x00, 0x00, 0x00, 0x0e, 0x00, 0x38, 0xff, 0x77, 0x67, 0x00, 0x00, 0x00,
   0x00, 0x0e, 0x00, 0x38, 0xf0, 0x37, 0xe0, 0x00, 0x00, 0x00, 0x00, 0x0e,
   0x00, 0x38, 0x70, 0x1f, 0xe0, 0x00, 0x00, 0x00, 0x00, 0x0e, 0x00, 0x30,
   0x03, 0x9f, 0xf8, 0x00, 0x00, 0x00, 0x00, 0x0e, 0x00, 0x00, 0x07, 0x8e,
   0xfd, 0x00, 0x00, 0x00, 0x00, 0x0e, 0x00, 0x00, 0x63, 0x80, 0x7f, 0x00,
   0x00, 0x00, 0x00, 0x0e, 0x00, 0x00, 0xf7, 0x62, 0x1f, 0x00, 0x00, 0x00,
   0x00, 0x0e, 0x00, 0x00, 0xff, 0x77, 0x0e, 0x00, 0x00, 0x00, 0x00, 0x0e,
   0x00, 0x00, 0xfe, 0x67, 0x0e, 0x00, 0x00, 0x00, 0x00, 0x0e, 0x00, 0x00,
   0xd8, 0x07, 0x00, 0x00, 0x00, 0x00, 0x00, 0x0e, 0x00, 0x00, 0x00, 0x0e,
   0x00, 0x00, 0x00, 0x00, 0x00, 0x00, 0x00, 0x00, 0x00, 0x0e, 0x00, 0x00,
   0x00, 0x00, 0x00, 0x00, 0x00, 0x00, 0x00, 0x0e, 0x00, 0x00, 0x00, 0x00,
   0x00, 0x1c, 0x00, 0x00, 0x00, 0x0e, 0x00, 0x00, 0x00, 0x00, 0x00, 0x1c,
   0x00, 0x00, 0x00, 0x0e, 0x00, 0x00, 0x00, 0x00, 0x00, 0x1c, 0x00, 0x00,
   0x00, 0x0e, 0x00, 0x00, 0x00, 0x00, 0x00, 0x1c, 0x00, 0x00, 0x00, 0x0e,
   0x00, 0x00, 0x00, 0x00, 0x00, 0x1c, 0x00, 0x00, 0x00, 0x0e, 0x00, 0x00,
   0x00, 0x00, 0x00, 0x1c, 0x00, 0x00, 0x00, 0x0e, 0x00, 0x00, 0x00, 0x00,
   0x00, 0x1c, 0x00, 0x00, 0x00, 0x0e, 0x00, 0x00, 0x00, 0x00, 0x00, 0x1c,
   0x00, 0x00, 0x00, 0x0e, 0x00, 0x00, 0x00, 0x00, 0x00, 0x1c, 0x00, 0x00,
   0x00, 0x0e, 0x00, 0x00, 0x00, 0x00, 0x00, 0x1c, 0x00, 0x00, 0x00, 0x0e,
   0x00, 0x00, 0x00, 0x00, 0x00, 0x1c, 0x00, 0x00, 0x00, 0x0e, 0x00, 0x00,
   0x00, 0x00, 0x00, 0x1c, 0x00, 0x00, 0x00, 0x0e, 0x00, 0x00, 0x00, 0x00,
   0x00, 0x1c, 0x00, 0x00, 0x00, 0x0e, 0x00, 0x00, 0x00, 0x00, 0x00, 0x1c,
   0x00, 0x00, 0x00, 0x0e, 0x00, 0x00, 0x00, 0x00, 0x00, 0x1c, 0x00, 0x00,
   0x00, 0x0e, 0x00, 0x00, 0x00, 0x00, 0x00, 0x1c, 0x00, 0x00, 0x00, 0x0c,
   0x00, 0x00, 0x00, 0x00, 0x00, 0x1c, 0x00, 0x00, 0x00, 0x00, 0x00, 0x00,
   0x00, 0x00, 0x00, 0x18, 0x00, 0x00, 0x00, 0x04, 0x00, 0x00, 0x00, 0x00,
   0x00, 0x00, 0x00, 0x00, 0x00, 0x0e, 0x00, 0x00, 0x00, 0x00, 0x00, 0x00,
   0x00, 0x00, 0x00, 0x04, 0x00, 0x00, 0x00, 0x00, 0x00, 0x38, 0x00, 0x00,
   0x00, 0x00, 0x00, 0x00, 0x00, 0x00, 0x00, 0x38, 0x00, 0x00, 0x00, 0x00,
   0x00, 0x00, 0x00, 0x00, 0x00, 0x00, 0x00, 0x00, 0x00, 0x0e, 0x00, 0x00,
   0x00, 0x00, 0x00, 0x00, 0x00, 0x00, 0x00, 0x0e, 0x00, 0x00, 0x00, 0x00,
   0x00, 0x30, 0x00, 0x00, 0x00, 0x0e, 0x00, 0x00, 0x00, 0x00, 0x00, 0x78,
   0x00, 0x00, 0x00, 0x0e, 0x00, 0x00, 0x00, 0x00, 0x00, 0x78, 0x00, 0x00,
   0x00, 0x0e, 0x00, 0x00, 0x00, 0x00, 0x00, 0x78, 0x00, 0x00, 0x00, 0x0e,
   0x00, 0x00, 0x00, 0x00, 0x00, 0x78, 0x00, 0x00, 0x00, 0x0e, 0x00, 0x00,
   0x00, 0x00, 0x00, 0x78, 0x00, 0x00, 0x00, 0x0e, 0x00, 0x00, 0x00, 0x00,
   0x00, 0x78, 0x00, 0x00, 0x00, 0x0e, 0x00, 0x00, 0x00, 0x00, 0x00, 0x78,
   0x00, 0x00, 0x00, 0x0e, 0x00, 0x00, 0x00, 0x00, 0x00, 0x78, 0x00, 0x00,
   0x00, 0x0e, 0x00, 0x00, 0x00, 0x00, 0x00, 0x78, 0x00, 0x00, 0x00, 0x0e,
   0x00, 0x00, 0x00, 0x00, 0x00, 0x78, 0x00, 0x00, 0x00, 0x0e, 0x00, 0x00,
   0x00, 0x00, 0x00, 0x78, 0x00, 0x00, 0x00, 0x0e, 0x00, 0x00, 0x00, 0x00,
   0x00, 0x78, 0x00, 0x00, 0x00, 0x0e, 0x00, 0x00, 0x00, 0x00, 0x00, 0x78,
   0x00, 0x00, 0x00, 0x0e, 0x00, 0x00, 0x00, 0x00, 0x00, 0x78, 0x00, 0x00,
   0x00, 0x0e, 0x00, 0x00, 0x00, 0x00, 0x00, 0x78, 0x00, 0x00, 0x00, 0x00,
   0x00, 0x00, 0x00, 0x00, 0x00, 0x78, 0x00, 0x00, 0x00, 0x00, 0x00, 0x00,
   0x00, 0x00, 0x00, 0x30, 0x00, 0x00, 0x00, 0x00, 0x00, 0x00, 0x00, 0x00,
   0x00, 0x00, 0x00, 0x00, 0x00, 0x00, 0x00, 0x00, 0x00, 0x00, 0x00, 0x00,
   0x00, 0x00, 0x00, 0x00, 0x00, 0x00, 0x00, 0x00, 0x00, 0x00, 0x00, 0x00,
   0x00, 0x00, 0x00, 0x00 };
